HIERARCHY
ROOT Pelvis
{
	OFFSET 0.000000 0.000000 0.000000
	CHANNELS 6 Xposition Yposition Zposition Xrotation Yrotation Zrotation
	JOINT LeftUpLeg_virtual
	{
		OFFSET 0.000000 0.000000 0.000000
		CHANNELS 3 Xrotation Yrotation Zrotation
		JOINT LeftUpLeg
		{
			OFFSET 18.735201 -5.666702 -4.541200
			CHANNELS 3 Xrotation Yrotation Zrotation
			JOINT LeftLeg
			{
				OFFSET -0.021200 -31.938179 0.493100
				CHANNELS 3 Xrotation Yrotation Zrotation
				JOINT LeftFoot
				{
					OFFSET 0.021200 -31.938179 -4.336299
					CHANNELS 3 Xrotation Yrotation Zrotation
					JOINT LeftToeBase
					{
						OFFSET 0.943001 -26.722000 15.023500
						CHANNELS 3 Xrotation Yrotation Zrotation
						End Site
						{
							OFFSET 0 0 0
						}
					}
				}
			}
		}
	}
	JOINT RightUpLeg_virtual
	{
		OFFSET 0.000000 0.000000 0.000000
		CHANNELS 3 Xrotation Yrotation Zrotation
		JOINT RightUpLeg
		{
			OFFSET -18.735201 -5.666702 -4.541200
			CHANNELS 3 Xrotation Yrotation Zrotation
			JOINT RightLeg
			{
				OFFSET 0.018946 -31.938133 0.493100
				CHANNELS 3 Xrotation Yrotation Zrotation
				JOINT RightFoot
				{
					OFFSET -0.018946 -31.938126 -4.336299
					CHANNELS 3 Xrotation Yrotation Zrotation
					JOINT RightToeBase
					{
						OFFSET -0.943001 -26.722004 15.023500
						CHANNELS 3 Xrotation Yrotation Zrotation
						End Site
						{
							OFFSET 0 0 0
						}
					}
				}
			}
		}
	}
	JOINT Hips_virtual
	{
		OFFSET 0.000000 0.000000 0.000000
		CHANNELS 3 Xrotation Yrotation Zrotation
		JOINT Hips
		{
			OFFSET -0.000000 -0.000000 -0.000000
			CHANNELS 3 Xrotation Yrotation Zrotation
			JOINT Spine
			{
				OFFSET 0.000000 10.199997 -0.299500
				CHANNELS 3 Xrotation Yrotation Zrotation
				JOINT Spine1
				{
					OFFSET 0.000000 11.900002 -1.516600
					CHANNELS 3 Xrotation Yrotation Zrotation
					JOINT Spine2
					{
						OFFSET 0.000000 13.600006 -2.842500
						CHANNELS 3 Xrotation Yrotation Zrotation
						JOINT Neck_virtual
						{
							OFFSET 0.000000 0.000000 0.000000
							CHANNELS 3 Xrotation Yrotation Zrotation
							JOINT Neck
							{
								OFFSET 0.000000 9.624100 -2.890100
								CHANNELS 3 Xrotation Yrotation Zrotation
								JOINT Head
								{
									OFFSET 0.000000 14.068802 -1.351900
									CHANNELS 3 Xrotation Yrotation Zrotation
									End Site
									{
										OFFSET 0 0 0
									}
								}
							}
						}
						JOINT LeftShoulder_virtual
						{
							OFFSET 0.000000 0.000000 0.000000
							CHANNELS 3 Xrotation Yrotation Zrotation
							JOINT LeftShoulder
							{
								OFFSET 15.263000 10.923401 -0.547700
								CHANNELS 3 Xrotation Yrotation Zrotation
								JOINT LeftArm
								{
									OFFSET 25.438599 -2.830597 -13.032500
									CHANNELS 3 Xrotation Yrotation Zrotation
									JOINT LeftForeArm
									{
										OFFSET 29.960503 0.000000 0.000000
										CHANNELS 3 Xrotation Yrotation Zrotation
										JOINT LeftHand
										{
											OFFSET 27.849251 0.000000 0.000000
											CHANNELS 3 Xrotation Yrotation Zrotation
											End Site
											{
												OFFSET 0 0 0
											}
										}
									}
								}
							}
						}
						JOINT RightShoulder_virtual
						{
							OFFSET 0.000000 0.000000 0.000000
							CHANNELS 3 Xrotation Yrotation Zrotation
							JOINT RightShoulder
							{
								OFFSET -15.263000 10.923401 -0.547700
								CHANNELS 3 Xrotation Yrotation Zrotation
								JOINT RightArm
								{
									OFFSET -25.438599 -2.830597 -13.032500
									CHANNELS 3 Xrotation Yrotation Zrotation
									JOINT RightForeArm
									{
										OFFSET -29.960503 0.000000 0.000000
										CHANNELS 3 Xrotation Yrotation Zrotation
										JOINT RightHand
										{
											OFFSET -27.849251 0.000000 0.000000
											CHANNELS 3 Xrotation Yrotation Zrotation
											End Site
											{
												OFFSET 0 0 0
											}
										}
									}
								}
							}
						}
					}
				}
			}
		}
	}
}
MOTION
Frames: 5
Frame Time: 0.03333333
9.602168 80.710640 -7.482153 0.000000 0.000000 0.000000 26.242167 -76.101947 29.975778 -40.780806 -13.892657 21.603210 45.839544 -12.732722 1.423552 -10.185775 -11.962799 -13.668277 0.000000 0.000000 0.000000 19.990398 -48.608926 5.215570 -16.475695 -19.624631 -24.728891 45.004338 12.817643 -3.554165 -14.332923 8.825205 15.667026 0.000000 0.000000 0.000000 -1.904854 -39.520403 2.874989 7.781207 -38.941893 4.677021 6.404205 4.409405 0.571915 0.916154 2.500265 0.881266 0.000000 0.000000 0.000000 3.736052 3.472154 -0.683332 -0.560386 2.890580 -0.376781 0.000000 0.000000 0.000000 2.754387 3.561893 0.182023 2.115568 10.709572 -5.686659 -19.790535 -20.064818 -62.562368 -10.659542 -78.474311 -14.893649 0.000000 0.000000 0.000000 3.256477 3.164898 -0.264714 1.196118 10.910623 9.056940 -18.819538 25.977617 48.591929 -178.222435 84.908609 177.980318 0.000000 0.000000 0.000000 
9.612362 80.807579 -7.333831 0.000000 0.000000 0.000000 24.655105 -75.850535 28.494943 -41.222944 -13.740116 21.472733 45.689608 -13.042159 1.478334 -10.416443 -12.228209 -13.817825 0.000000 0.000000 0.000000 19.402209 -48.905507 4.654659 -16.865520 -19.561563 -25.141190 45.280889 12.698677 -3.385708 -14.095463 8.667758 15.858133 0.000000 0.000000 0.000000 -1.929125 -39.274944 2.866448 7.535758 -38.802653 4.403939 6.392955 4.411955 0.565097 0.926763 2.503577 0.863723 0.000000 0.000000 0.000000 3.820460 3.412219 -0.684694 -0.545759 2.850183 -0.367402 0.000000 0.000000 0.000000 2.795287 3.568184 0.215485 2.111437 10.783286 -5.510944 -19.268884 -20.318047 -62.581533 -10.029090 -78.648126 -14.343191 0.000000 0.000000 0.000000 3.201130 3.132729 -0.316248 1.111434 10.630482 8.982290 -18.714073 25.696778 48.616911 -178.156223 84.722814 177.905705 0.000000 0.000000 0.000000 
9.558417 81.350159 -7.078349 0.000000 0.000000 0.000000 22.284604 -75.226215 26.186727 -41.630747 -13.429120 21.270734 45.659791 -13.306629 1.534186 -10.462810 -12.500772 -13.946267 0.000000 0.000000 0.000000 18.587938 -48.749567 3.990135 -17.299886 -19.354816 -25.398480 45.761912 12.439288 -3.265970 -13.533538 8.515667 15.903039 0.000000 0.000000 0.000000 -1.981905 -38.897214 2.833077 7.054934 -38.343162 3.926931 6.353561 4.386805 0.552008 0.927802 2.490681 0.840587 0.000000 0.000000 0.000000 3.870503 3.319127 -0.704536 -0.547323 2.792706 -0.368427 0.000000 0.000000 0.000000 2.833981 3.544801 0.248206 2.107743 10.784839 -5.341424 -18.854102 -20.673068 -62.498710 -9.359706 -78.829727 -13.698453 0.000000 0.000000 0.000000 3.126932 3.083116 -0.373443 1.017823 10.322785 8.866734 -18.515711 25.323498 48.564035 -178.139912 84.658958 177.881458 0.000000 0.000000 0.000000 
9.437132 82.292633 -6.734431 0.000000 0.000000 0.000000 19.481291 -74.199651 23.397042 -41.975809 -12.963427 21.025496 45.749741 -13.482705 1.560803 -10.325249 -12.724297 -14.064729 0.000000 0.000000 0.000000 17.623879 -48.147738 3.292372 -17.762465 -19.015986 -25.485420 46.446905 12.045574 -3.207958 -12.663545 8.366578 15.783292 0.000000 0.000000 0.000000 -2.058446 -38.388433 2.779995 6.389951 -37.548866 3.297084 6.282764 4.334968 0.532510 0.916952 2.462119 0.812053 0.000000 0.000000 0.000000 3.886461 3.198827 -0.739240 -0.564350 2.722089 -0.377990 0.000000 0.000000 0.000000 2.867709 3.494286 0.277479 2.104834 10.724195 -5.190981 -18.556719 -21.103784 -62.334629 -8.697454 -79.012475 -13.009149 0.000000 0.000000 0.000000 3.041097 3.019654 -0.433375 0.922431 10.005407 8.722024 -18.227388 24.870351 48.422541 -178.192354 84.735341 177.923969 0.000000 0.000000 0.000000 
9.252699 83.571609 -6.328637 0.000000 0.000000 0.000000 16.603507 -72.760161 20.479585 -42.238204 -12.351744 20.760155 45.928835 -13.522804 1.522053 -10.027869 -12.830226 -14.184661 0.000000 0.000000 0.000000 16.590688 -47.121769 2.626681 -18.238089 -18.560359 -25.401733 47.322641 11.535899 -3.221565 -11.520553 8.218919 15.487075 0.000000 0.000000 0.000000 -2.152330 -37.758324 2.713178 5.616384 -36.432984 2.585054 6.180254 4.255373 0.507063 0.893388 2.417285 0.778684 0.000000 0.000000 0.000000 3.871198 3.056766 -0.783759 -0.594982 2.641863 -0.393375 0.000000 0.000000 0.000000 2.893710 3.418903 0.301335 2.102012 10.609623 -5.068970 -18.380348 -21.584265 -62.114806 -8.088664 -79.194875 -12.328409 0.000000 0.000000 0.000000 2.951503 2.944877 -0.492852 0.832919 9.691284 8.561167 -17.853578 24.352590 48.185571 -178.344340 84.963667 178.062335 0.000000 0.000000 0.000000 
